<svg width="62" height="62" viewBox="0 0 62 62" fill="none" xmlns="http://www.w3.org/2000/svg">
<g clip-path="url(#clip0_12701_425)">
<path d="M36.3871 36.1665C35.973 36.1665 35.5757 36.3304 35.2829 36.622C34.99 36.9137 34.8254 37.3093 34.8254 37.7217V52.2307L32.9007 50.7822C32.7197 50.6464 32.5112 50.5514 32.2897 50.5037C32.0682 50.456 31.8389 50.4569 31.6178 50.5062C31.3967 50.5555 31.1889 50.6521 31.009 50.7893C30.829 50.9264 30.6812 51.1009 30.5756 51.3006L29.0948 54.1213V42.8122C29.0948 42.3997 28.9303 42.0041 28.6374 41.7125C28.3446 41.4208 27.9473 41.2569 27.5331 41.2569C27.1189 41.2569 26.7217 41.4208 26.4288 41.7125C26.136 42.0041 25.9714 42.3997 25.9714 42.8122V60.4555C25.9712 60.8032 26.088 61.141 26.3034 61.4146C26.5187 61.6883 26.82 61.8821 27.1591 61.965C27.4973 62.0469 27.8533 62.0137 28.1704 61.8708C28.4875 61.728 28.7474 61.4836 28.9089 61.1765L32.4807 54.3784L35.4444 56.6023C35.6761 56.777 35.9521 56.8838 36.2415 56.9108C36.5308 56.9378 36.8219 56.8839 37.0821 56.7551C37.3424 56.6264 37.5613 56.4278 37.7145 56.1819C37.8676 55.9359 37.9488 55.6523 37.9488 55.3629V37.7196C37.9483 37.3075 37.7835 36.9124 37.4907 36.6213C37.1979 36.3301 36.801 36.1665 36.3871 36.1665Z" fill="white"/>
<path d="M49.2724 30.436C48.7666 30.1418 48.1914 29.9868 47.6057 29.9868C47.02 29.9868 46.4448 30.1418 45.939 30.436L40.6284 33.4855C40.1222 33.7775 39.7018 34.1968 39.4093 34.7013C39.1169 35.2059 38.9625 35.7781 38.9617 36.3607V51.7474C38.9617 52.1599 39.1262 52.5555 39.4191 52.8471C39.712 53.1388 40.1092 53.3027 40.5234 53.3027C40.9376 53.3027 41.3348 53.1388 41.6277 52.8471C41.9205 52.5555 42.0851 52.1599 42.0851 51.7474V48.0009L47.8157 44.7053V47.8898C47.8157 48.3023 47.9802 48.6979 48.2731 48.9896C48.566 49.2812 48.9632 49.4451 49.3774 49.4451C49.7916 49.4451 50.1888 49.2812 50.4817 48.9896C50.7746 48.6979 50.9391 48.3023 50.9391 47.8898V33.309C50.9424 32.7259 50.7897 32.1524 50.4968 31.6475C50.2039 31.1426 49.7813 30.7244 49.2724 30.436ZM42.0807 44.4047V36.365C42.0816 36.3285 42.0917 36.2929 42.11 36.2613C42.1284 36.2297 42.1544 36.2032 42.1857 36.1842L47.4964 33.1348C47.5284 33.119 47.5639 33.1113 47.5997 33.1123C47.6354 33.1134 47.6704 33.1231 47.7015 33.1408C47.7326 33.1584 47.7588 33.1834 47.778 33.2135C47.7971 33.2435 47.8086 33.2779 47.8113 33.3134V41.1178L42.0807 44.4047Z" fill="white"/>
<path d="M61.1644 22.514C60.7976 22.3228 60.3698 22.2843 59.9745 22.4068C59.5793 22.5293 59.2489 22.8028 59.0559 23.1674L55.4382 30.0527L52.1573 27.8571C51.9871 27.7427 51.7959 27.6627 51.5947 27.6219C51.3935 27.581 51.1862 27.58 50.9847 27.619C50.7831 27.6579 50.5912 27.736 50.4199 27.8488C50.2486 27.9616 50.1013 28.1069 49.9864 28.2764C49.8715 28.4458 49.7913 28.6362 49.7503 28.8366C49.7092 29.0369 49.7083 29.2434 49.7474 29.4441C49.7865 29.6449 49.8649 29.836 49.9781 30.0066C50.0914 30.1771 50.2373 30.3238 50.4075 30.4382L54.4408 33.1392V44.0671C54.4408 44.4796 54.6053 44.8752 54.8982 45.1669C55.1911 45.4585 55.5883 45.6224 56.0025 45.6224C56.4167 45.6224 56.8139 45.4585 57.1068 45.1669C57.3996 44.8752 57.5642 44.4796 57.5642 44.0671V32.6992L61.8118 24.6137C62.0044 24.2496 62.0444 23.8243 61.9231 23.4308C61.8018 23.0374 61.529 22.7077 61.1644 22.514Z" fill="white"/>
<path d="M51.5865 8.20107C51.8605 8.20161 52.1299 8.13024 52.3674 7.99414L54.4518 6.79396V21.7363C54.4518 22.1488 54.6164 22.5444 54.9093 22.8361C55.2021 23.1277 55.5994 23.2916 56.0135 23.2916C56.4277 23.2916 56.825 23.1277 57.1178 22.8361C57.4107 22.5444 57.5753 22.1488 57.5753 21.7363V4.99913L61.2214 2.90372C61.5802 2.69748 61.842 2.35775 61.9493 1.95927C62.0566 1.56079 62.0005 1.13619 61.7934 0.77889C61.5863 0.421588 61.2452 0.160848 60.845 0.0540281C60.4449 -0.052792 60.0185 0.00305991 59.6597 0.209296L50.8035 5.29972C50.5061 5.47107 50.2738 5.73527 50.1425 6.05142C50.0112 6.36756 49.9882 6.71801 50.0772 7.04847C50.1661 7.37892 50.362 7.67095 50.6345 7.87933C50.9069 8.0877 51.2408 8.20079 51.5843 8.20107H51.5865Z" fill="white"/>
<path d="M40.5234 32.2068C40.9376 32.2068 41.3348 32.0429 41.6277 31.7512C41.9206 31.4596 42.0851 31.064 42.0851 30.6515V14.0276C42.086 13.9911 42.0961 13.9554 42.1144 13.9238C42.1328 13.8922 42.1588 13.8658 42.1901 13.8468L47.5008 10.7973C47.533 10.7815 47.5687 10.7738 47.6046 10.775C47.6405 10.7761 47.6756 10.7861 47.7067 10.804C47.7379 10.8218 47.7641 10.8471 47.7831 10.8775C47.8021 10.9078 47.8133 10.9424 47.8157 10.9781V18.6606C47.8148 18.6971 47.8048 18.7327 47.7864 18.7643C47.7681 18.7959 47.742 18.8224 47.7107 18.8414L44.1652 20.8802C43.9419 21.0084 43.7539 21.1898 43.618 21.408C43.4822 21.6262 43.4027 21.8745 43.3867 22.1307C43.3707 22.387 43.4186 22.6432 43.5262 22.8765C43.6338 23.1098 43.7977 23.313 44.0033 23.4679L48.4303 26.8005C48.7612 27.0412 49.1739 27.1428 49.5793 27.0833C49.9847 27.0239 50.3503 26.8081 50.5975 26.4826C50.8446 26.157 50.9533 25.7478 50.9002 25.3432C50.8471 24.9385 50.6364 24.5709 50.3136 24.3195L47.7654 22.4049L49.2681 21.5336C49.7743 21.2416 50.1946 20.8223 50.4871 20.3177C50.7796 19.8132 50.9339 19.241 50.9348 18.6584V10.9738C50.9348 10.391 50.7808 9.81853 50.4883 9.31384C50.1958 8.80915 49.775 8.39004 49.2682 8.09864C48.7615 7.80725 48.1866 7.65383 47.6015 7.65381C47.0163 7.65379 46.4415 7.80718 45.9347 8.09855L40.624 11.148C40.1179 11.4396 39.6975 11.8584 39.405 12.3626C39.1125 12.8668 38.9581 13.4387 38.9574 14.021V30.6363C38.9553 30.8422 38.9944 31.0464 39.0722 31.2371C39.1501 31.4279 39.2652 31.6013 39.4109 31.7474C39.5565 31.8935 39.7299 32.0093 39.9209 32.0882C40.1119 32.167 40.3167 32.2073 40.5234 32.2068Z" fill="white"/>
<path d="M23.2966 23.0324C22.7919 22.7363 22.2168 22.5801 21.631 22.5801C21.0452 22.5801 20.4701 22.7363 19.9654 23.0324L14.6525 26.0819C14.1465 26.3736 13.7262 26.7925 13.4338 27.2967C13.1413 27.8008 12.9868 28.3727 12.9858 28.9549V45.5723C12.9858 45.9848 13.1504 46.3804 13.4432 46.672C13.7361 46.9637 14.1334 47.1276 14.5475 47.1276C14.9617 47.1276 15.359 46.9637 15.6518 46.672C15.9447 46.3804 16.1092 45.9848 16.1092 45.5723V40.5952L23.2966 36.4566C23.8026 36.1649 24.2229 35.746 24.5154 35.2418C24.8078 34.7377 24.9623 34.1658 24.9633 33.5836V25.9055C24.9668 25.3223 24.8142 24.7487 24.5213 24.2438C24.2283 23.7388 23.8056 23.3207 23.2966 23.0324ZM21.8399 33.5901C21.8399 33.6265 21.8302 33.6622 21.8117 33.6936C21.7932 33.725 21.7667 33.7509 21.7349 33.7687L16.1092 36.999V28.9593C16.1092 28.9229 16.119 28.8872 16.1374 28.8558C16.1559 28.8244 16.1824 28.7985 16.2142 28.7807L21.5271 25.7312C21.558 25.7121 21.5935 25.7015 21.6299 25.7007C21.6669 25.7019 21.703 25.7123 21.7349 25.7312C21.7677 25.7484 21.795 25.7745 21.8136 25.8065C21.8321 25.8385 21.8413 25.8751 21.8399 25.912V33.5901Z" fill="white"/>
<path d="M36.2822 15.5654C35.7764 15.2712 35.2012 15.1162 34.6155 15.1162C34.0298 15.1162 33.4546 15.2712 32.9488 15.5654L27.6382 18.6148C27.1321 18.9071 26.7119 19.3264 26.4194 19.8309C26.127 20.3354 25.9725 20.9075 25.9715 21.4901V35.0515C25.9687 35.635 26.1209 36.2089 26.4126 36.7149C26.7044 37.221 27.1254 37.6412 27.6329 37.9329C28.1404 38.2246 28.7163 38.3775 29.3023 38.376C29.8882 38.3745 30.4634 38.2188 30.9694 37.9245L36.2822 34.875C36.7883 34.5833 37.2085 34.1644 37.501 33.6603C37.7935 33.1561 37.9479 32.5843 37.9489 32.002V18.4384C37.9522 17.8553 37.7995 17.2818 37.5066 16.7769C37.2137 16.272 36.7911 15.8538 36.2822 15.5654ZM34.8364 32.002C34.8365 32.0384 34.8267 32.0741 34.8083 32.1055C34.7898 32.1369 34.7633 32.1628 34.7315 32.1806L29.4186 35.2301C29.3865 35.2454 29.351 35.2527 29.3154 35.2513C29.2798 35.25 29.245 35.2399 29.2142 35.2221C29.1833 35.2043 29.1574 35.1792 29.1385 35.1491C29.1196 35.119 29.1084 35.0847 29.1058 35.0493V21.4944C29.1067 21.4579 29.1168 21.4223 29.1351 21.3907C29.1535 21.3591 29.1795 21.3326 29.2108 21.3136L34.5215 18.2642C34.5529 18.2444 34.5893 18.2339 34.6265 18.2337C34.6637 18.2336 34.7001 18.2442 34.7315 18.2642C34.7643 18.2808 34.7916 18.3065 34.8102 18.3381C34.8289 18.3698 34.8379 18.4061 34.8364 18.4428V32.002Z" fill="white"/>
<path d="M10.3108 30.4971C9.80541 30.2029 9.23056 30.0479 8.64519 30.0479C8.05981 30.0479 7.48496 30.2029 6.97959 30.4971L1.66674 33.5465C1.16057 33.8381 0.740179 34.2569 0.447674 34.7611C0.155168 35.2654 0.000807377 35.8373 4.95743e-05 36.4196V39.6673C-0.00398385 40.4973 0.306258 41.2984 0.868928 41.9108C1.4316 42.5232 2.20536 42.902 3.03596 42.9716L8.66378 43.4725C8.71599 43.4764 8.76475 43.5 8.80011 43.5385C8.83547 43.5769 8.85477 43.6273 8.85407 43.6795V46.9272C8.85318 46.9636 8.84309 46.9993 8.82475 47.0309C8.80641 47.0625 8.78039 47.089 8.74908 47.108L3.43842 50.1574C3.40618 50.1732 3.37053 50.1809 3.33461 50.1798C3.29868 50.1786 3.2636 50.1686 3.23247 50.1508C3.20133 50.1329 3.17509 50.1077 3.15608 50.0773C3.13706 50.0469 3.12586 50.0123 3.12345 49.9766V47.145C3.12345 46.7325 2.95892 46.3369 2.66604 46.0453C2.37317 45.7536 1.97594 45.5898 1.56175 45.5898C1.14756 45.5898 0.750339 45.7536 0.457463 46.0453C0.164587 46.3369 4.95743e-05 46.7325 4.95743e-05 47.145V49.9766C-0.00315974 50.56 0.149507 51.1338 0.442391 51.639C0.735274 52.1443 1.15784 52.5628 1.66674 52.8518C2.1726 53.1458 2.74776 53.3007 3.33343 53.3007C3.9191 53.3007 4.49426 53.1458 5.00012 52.8518L10.3108 49.8024C10.8168 49.5107 11.2371 49.0918 11.5296 48.5876C11.822 48.0834 11.9765 47.5116 11.9775 46.9293V43.686C11.9815 42.8559 11.6713 42.0548 11.1086 41.4424C10.5459 40.83 9.77216 40.4513 8.94156 40.3817L3.31375 39.8807C3.26079 39.8738 3.21221 39.8478 3.17716 39.8077C3.1421 39.7676 3.123 39.7161 3.12345 39.6629V36.4261C3.12435 36.3896 3.13443 36.3539 3.15277 36.3224C3.17112 36.2908 3.19714 36.2643 3.22844 36.2453L8.54129 33.1959C8.5722 33.1758 8.6083 33.1651 8.64519 33.1651C8.68208 33.1651 8.71817 33.1758 8.74908 33.1959C8.78208 33.2129 8.80951 33.2389 8.82811 33.271C8.84671 33.303 8.85572 33.3397 8.85407 33.3766V36.2083C8.85407 36.6208 9.0186 37.0163 9.31148 37.308C9.60436 37.5997 10.0016 37.7635 10.4158 37.7635C10.83 37.7635 11.2272 37.5997 11.5201 37.308C11.8129 37.0163 11.9775 36.6208 11.9775 36.2083V33.3766C11.9815 32.7925 11.8292 32.2179 11.5362 31.7118C11.2433 31.2057 10.8203 30.7864 10.3108 30.4971Z" fill="white"/>
</g>
<defs>
<clipPath id="clip0_12701_425">
<rect width="62" height="62" fill="white"/>
</clipPath>
</defs>
</svg>
