<svg width="48" height="48" viewBox="0 0 48 48" fill="none" xmlns="http://www.w3.org/2000/svg">
<g clip-path="url(#clip0_12715_66)">
<path d="M28.1707 28C27.85 28 27.5425 28.1269 27.3158 28.3527C27.089 28.5785 26.9617 28.8847 26.9617 29.2041V40.4368L25.4715 39.3154C25.3314 39.2102 25.17 39.1367 24.9985 39.0998C24.827 39.0629 24.6495 39.0635 24.4783 39.1017C24.3071 39.1399 24.1463 39.2147 24.007 39.3208C23.8677 39.427 23.7532 39.5621 23.6715 39.7167L22.525 41.9005V33.145C22.525 32.8257 22.3977 32.5194 22.1709 32.2936C21.9442 32.0678 21.6367 31.941 21.316 31.941C20.9953 31.941 20.6878 32.0678 20.4611 32.2936C20.2343 32.5194 20.1069 32.8257 20.1069 33.145V46.8044C20.1067 47.0736 20.1972 47.3351 20.3639 47.5469C20.5306 47.7588 20.7639 47.9089 21.0264 47.9731C21.2883 48.0364 21.5638 48.0108 21.8093 47.9001C22.0548 47.7895 22.2561 47.6003 22.3811 47.3626L25.1464 42.0995L27.4409 43.8213C27.6202 43.9565 27.8339 44.0392 28.0579 44.0601C28.2819 44.081 28.5073 44.0393 28.7088 43.9396C28.9102 43.8399 29.0798 43.6862 29.1983 43.4958C29.3168 43.3054 29.3797 43.0858 29.3798 42.8617V29.2024C29.3793 28.8833 29.2517 28.5775 29.025 28.3521C28.7984 28.1266 28.4911 28 28.1707 28Z" fill="#F92626"/>
<path d="M38.1466 23.5636C37.755 23.3358 37.3097 23.2158 36.8562 23.2158C36.4028 23.2158 35.9575 23.3358 35.5659 23.5636L31.4544 25.9244C31.0625 26.1506 30.7371 26.4751 30.5106 26.8658C30.2842 27.2564 30.1647 27.6994 30.1641 28.1504V40.0627C30.1641 40.3821 30.2914 40.6883 30.5182 40.9141C30.7449 41.1399 31.0525 41.2668 31.3731 41.2668C31.6938 41.2668 32.0013 41.1399 32.2281 40.9141C32.4548 40.6883 32.5822 40.3821 32.5822 40.0627V37.1622L37.0188 34.6108V37.0762C37.0188 37.3956 37.1462 37.7018 37.3729 37.9276C37.5997 38.1534 37.9072 38.2803 38.2279 38.2803C38.5485 38.2803 38.8561 38.1534 39.0828 37.9276C39.3095 37.7018 39.4369 37.3956 39.4369 37.0762V25.7878C39.4395 25.3364 39.3213 24.8924 39.0945 24.5015C38.8677 24.1106 38.5406 23.7869 38.1466 23.5636ZM32.5788 34.3781V28.1538C32.5795 28.1255 32.5873 28.0979 32.6015 28.0735C32.6157 28.049 32.6358 28.0285 32.6601 28.0138L36.7716 25.6529C36.7964 25.6407 36.8239 25.6348 36.8515 25.6356C36.8792 25.6364 36.9063 25.6439 36.9304 25.6576C36.9544 25.6712 36.9748 25.6906 36.9896 25.7139C37.0044 25.7372 37.0133 25.7637 37.0154 25.7912V31.8334L32.5788 34.3781Z" fill="#F92626"/>
<path d="M47.3533 17.4299C47.0694 17.282 46.7381 17.2521 46.4321 17.3469C46.1262 17.4418 45.8704 17.6535 45.7209 17.9358L42.9201 23.2664L40.3801 21.5665C40.2483 21.4779 40.1003 21.4161 39.9446 21.3845C39.7888 21.3528 39.6283 21.3521 39.4722 21.3822C39.3162 21.4123 39.1676 21.4728 39.035 21.5601C38.9024 21.6475 38.7884 21.7599 38.6994 21.8911C38.6105 22.0224 38.5483 22.1697 38.5166 22.3249C38.4848 22.48 38.4841 22.6398 38.5143 22.7952C38.5446 22.9506 38.6053 23.0986 38.693 23.2307C38.7807 23.3627 38.8936 23.4763 39.0254 23.5648L42.1479 25.6559V34.1163C42.1479 34.4356 42.2753 34.7419 42.5021 34.9677C42.7288 35.1935 43.0363 35.3203 43.357 35.3203C43.6777 35.3203 43.9852 35.1935 44.2119 34.9677C44.4387 34.7419 44.5661 34.4356 44.5661 34.1163V25.3153L47.8546 19.0556C48.0037 18.7736 48.0347 18.4444 47.9407 18.1398C47.8468 17.8352 47.6356 17.58 47.3533 17.4299Z" fill="#F92626"/>
<path d="M39.9378 6.34944C40.1499 6.34985 40.3584 6.2946 40.5423 6.18924L42.1561 5.26006V16.8284C42.1561 17.1477 42.2835 17.4539 42.5102 17.6798C42.737 17.9056 43.0445 18.0324 43.3652 18.0324C43.6858 18.0324 43.9933 17.9056 44.2201 17.6798C44.4468 17.4539 44.5742 17.1477 44.5742 16.8284V3.87052L47.3971 2.24826C47.6748 2.08859 47.8775 1.82558 47.9606 1.51707C48.0436 1.20857 48.0002 0.879854 47.8399 0.603233C47.6795 0.326611 47.4154 0.124748 47.1056 0.0420487C46.7959 -0.0406507 46.4658 0.00258948 46.188 0.162256L39.3316 4.10323C39.1013 4.23589 38.9215 4.44043 38.8198 4.68519C38.7182 4.92995 38.7004 5.20126 38.7692 5.4571C38.8381 5.71293 38.9897 5.93902 39.2007 6.10035C39.4116 6.26167 39.6701 6.34922 39.9361 6.34944H39.9378Z" fill="#F92626"/>
<path d="M31.3727 24.934C31.6933 24.934 32.0008 24.8072 32.2276 24.5814C32.4543 24.3556 32.5817 24.0493 32.5817 23.73V10.8598C32.5824 10.8316 32.5902 10.804 32.6044 10.7795C32.6186 10.7551 32.6388 10.7345 32.663 10.7199L36.7745 8.35898C36.7994 8.34673 36.827 8.34079 36.8548 8.34168C36.8827 8.34258 36.9098 8.35029 36.9339 8.36413C36.958 8.37796 36.9783 8.3975 36.9931 8.42102C37.0078 8.44453 37.0165 8.4713 37.0183 8.49895V14.4467C37.0176 14.4749 37.0098 14.5025 36.9956 14.527C36.9814 14.5514 36.9613 14.572 36.937 14.5866L34.1921 16.1651C34.0192 16.2644 33.8737 16.4047 33.7685 16.5737C33.6633 16.7426 33.6018 16.9349 33.5894 17.1332C33.577 17.3316 33.6141 17.53 33.6974 17.7106C33.7807 17.8912 33.9076 18.0485 34.0668 18.1684L37.4941 20.7485C37.7503 20.9349 38.0698 21.0136 38.3836 20.9675C38.6975 20.9215 38.9806 20.7544 39.1719 20.5024C39.3632 20.2504 39.4474 19.9335 39.4063 19.6203C39.3652 19.307 39.2021 19.0224 38.9521 18.8278L36.9794 17.3455L38.1427 16.671C38.5346 16.4448 38.86 16.1203 39.0865 15.7296C39.3129 15.339 39.4324 14.896 39.433 14.445V8.49558C39.4331 8.04442 39.3139 7.60121 39.0874 7.21048C38.8609 6.81975 38.5352 6.49528 38.1428 6.26968C37.7505 6.04408 37.3055 5.92531 36.8524 5.92529C36.3994 5.92528 35.9544 6.04403 35.562 6.26961L31.4506 8.63048C31.0587 8.85619 30.7332 9.18046 30.5068 9.57082C30.2803 9.96118 30.1608 10.4039 30.1602 10.8548V23.7182C30.1586 23.8776 30.1889 24.0357 30.2491 24.1834C30.3094 24.331 30.3985 24.4653 30.5113 24.5784C30.6241 24.6915 30.7583 24.7812 30.9062 24.8422C31.054 24.9033 31.2126 24.9345 31.3727 24.934Z" fill="#F92626"/>
<path d="M18.0357 17.8316C17.645 17.6024 17.1998 17.4814 16.7462 17.4814C16.2927 17.4814 15.8475 17.6024 15.4567 17.8316L11.3436 20.1925C10.9518 20.4184 10.6264 20.7427 10.4 21.133C10.1736 21.5233 10.054 21.966 10.0532 22.4168V35.2819C10.0532 35.6012 10.1806 35.9075 10.4073 36.1333C10.6341 36.3591 10.9416 36.486 11.2623 36.486C11.5829 36.486 11.8905 36.3591 12.1172 36.1333C12.344 35.9075 12.4713 35.6012 12.4713 35.2819V31.4286L18.0357 28.2246C18.4275 27.9987 18.7529 27.6744 18.9793 27.2841C19.2057 26.8938 19.3253 26.4511 19.3261 26.0003V20.0559C19.3288 19.6045 19.2107 19.1604 18.9839 18.7695C18.7571 18.3785 18.4298 18.0548 18.0357 17.8316ZM16.908 26.0053C16.908 26.0335 16.9004 26.0612 16.8861 26.0855C16.8719 26.1098 16.8513 26.1298 16.8267 26.1436L12.4713 28.6445V22.4202C12.4713 22.392 12.4789 22.3644 12.4931 22.3401C12.5074 22.3158 12.528 22.2957 12.5526 22.2819L16.6658 19.921C16.6897 19.9062 16.7172 19.8981 16.7454 19.8974C16.7741 19.8983 16.802 19.9064 16.8267 19.921C16.8521 19.9344 16.8732 19.9546 16.8876 19.9793C16.902 20.0041 16.909 20.0324 16.908 20.061V26.0053Z" fill="#F92626"/>
<path d="M28.0895 12.0504C27.6979 11.8226 27.2526 11.7026 26.7991 11.7026C26.3457 11.7026 25.9004 11.8226 25.5088 12.0504L21.3973 14.4113C21.0055 14.6375 20.6802 14.9621 20.4538 15.3527C20.2273 15.7433 20.1078 16.1862 20.107 16.6372V27.1364C20.1048 27.5881 20.2226 28.0324 20.4485 28.4242C20.6744 28.816 21.0003 29.1413 21.3932 29.3672C21.7861 29.593 22.232 29.7114 22.6856 29.7102C23.1393 29.7091 23.5846 29.5885 23.9763 29.3607L28.0895 26.9998C28.4812 26.774 28.8066 26.4497 29.033 26.0593C29.2595 25.669 29.3791 25.2263 29.3798 24.7755V14.2747C29.3824 13.8232 29.2642 13.3792 29.0374 12.9883C28.8106 12.5974 28.4835 12.2737 28.0895 12.0504ZM26.9702 24.7755C26.9702 24.8037 26.9626 24.8313 26.9484 24.8556C26.9341 24.8799 26.9135 24.9 26.8889 24.9138L22.7757 27.2747C22.7508 27.2866 22.7234 27.2922 22.6958 27.2911C22.6682 27.2901 22.6413 27.2823 22.6174 27.2685C22.5936 27.2547 22.5735 27.2353 22.5588 27.212C22.5442 27.1886 22.5355 27.1621 22.5336 27.1347V16.6406C22.5342 16.6124 22.5421 16.5847 22.5563 16.5603C22.5705 16.5358 22.5906 16.5153 22.6148 16.5006L26.7263 14.1398C26.7507 14.1245 26.7788 14.1163 26.8076 14.1161C26.8364 14.1161 26.8646 14.1243 26.8889 14.1398C26.9143 14.1526 26.9355 14.1725 26.9499 14.197C26.9643 14.2215 26.9713 14.2497 26.9702 14.278V24.7755Z" fill="#F92626"/>
<path d="M7.98254 23.6105C7.59128 23.3827 7.14624 23.2627 6.69305 23.2627C6.23985 23.2627 5.79481 23.3827 5.40355 23.6105L1.29038 25.9714C0.898503 26.1971 0.573042 26.5213 0.346586 26.9117C0.12013 27.3021 0.000625066 27.7448 3.83801e-05 28.1956V30.71C-0.00308427 31.3526 0.237103 31.9728 0.672719 32.4469C1.10833 32.9211 1.70738 33.2143 2.35042 33.2682L6.70744 33.656C6.74786 33.659 6.78561 33.6773 6.81299 33.707C6.84037 33.7368 6.85531 33.7759 6.85476 33.8162V36.3305C6.85407 36.3588 6.84627 36.3864 6.83206 36.4109C6.81786 36.4353 6.79772 36.4558 6.77348 36.4705L2.662 38.8314C2.63705 38.8436 2.60944 38.8496 2.58163 38.8487C2.55382 38.8478 2.52666 38.8401 2.50255 38.8262C2.47845 38.8124 2.45813 38.7929 2.44341 38.7694C2.42869 38.7458 2.42002 38.7191 2.41816 38.6914V36.4992C2.41816 36.1798 2.29078 35.8736 2.06403 35.6478C1.83729 35.422 1.52976 35.2951 1.2091 35.2951C0.888435 35.2951 0.580907 35.422 0.354165 35.6478C0.127422 35.8736 3.83801e-05 36.1798 3.83801e-05 36.4992V38.6914C-0.00244625 39.1431 0.115747 39.5873 0.342496 39.9784C0.569245 40.3696 0.89639 40.6937 1.29038 40.9174C1.68201 41.145 2.1273 41.2649 2.58072 41.2649C3.03414 41.2649 3.47943 41.145 3.87106 40.9174L7.98254 38.5565C8.3743 38.3307 8.69967 38.0064 8.92611 37.616C9.15255 37.2257 9.27213 36.783 9.27288 36.3322V33.8213C9.27601 33.1786 9.03582 32.5584 8.6002 32.0843C8.16458 31.6102 7.56554 31.317 6.9225 31.2631L2.56548 30.8752C2.52449 30.8699 2.48687 30.8498 2.45973 30.8187C2.4326 30.7876 2.41781 30.7478 2.41816 30.7066V28.2007C2.41885 28.1725 2.42665 28.1448 2.44086 28.1204C2.45506 28.0959 2.4752 28.0754 2.49944 28.0607L6.61261 25.6999C6.63654 25.6843 6.66449 25.6761 6.69305 25.6761C6.72161 25.6761 6.74955 25.6843 6.77348 25.6999C6.79903 25.713 6.82026 25.7332 6.83467 25.758C6.84907 25.7828 6.85604 25.8112 6.85476 25.8398V28.0321C6.85476 28.3514 6.98214 28.6576 7.20889 28.8835C7.43563 29.1093 7.74316 29.2361 8.06382 29.2361C8.38449 29.2361 8.69201 29.1093 8.91876 28.8835C9.1455 28.6576 9.27288 28.3514 9.27288 28.0321V25.8398C9.27597 25.3876 9.15806 24.9427 8.93128 24.5509C8.7045 24.1591 8.37703 23.8345 7.98254 23.6105Z" fill="#F92626"/>
</g>
<defs>
<clipPath id="clip0_12715_66">
<rect width="48" height="48" fill="white"/>
</clipPath>
</defs>
</svg>
