<svg width="16" height="16" viewBox="0 0 16 16" fill="none" xmlns="http://www.w3.org/2000/svg">
<path d="M7.99997 0.409181C9.29397 0.408601 10.5651 0.750584 11.6841 1.40038C12.8031 2.05018 13.7302 2.98462 14.3711 4.10876C15.012 5.2329 15.3438 6.50667 15.333 7.80063C15.3221 9.09459 14.969 10.3626 14.3093 11.4759L15.2926 14.1812C15.3293 14.2819 15.3411 14.3899 15.3271 14.4961C15.3132 14.6023 15.2738 14.7036 15.2124 14.7914C15.151 14.8792 15.0693 14.9508 14.9743 15.0004C14.8793 15.0499 14.7738 15.0758 14.6666 15.0759C14.5889 15.0757 14.5118 15.0621 14.4386 15.0359L11.7333 14.0519C10.7624 14.627 9.67182 14.9704 8.54651 15.0551C7.4212 15.1399 6.29151 14.9638 5.24538 14.5406C4.19925 14.1174 3.26492 13.4584 2.5151 12.615C1.76529 11.7717 1.22024 10.7666 0.922376 9.67813C0.624513 8.58965 0.581876 7.44711 0.797787 6.33946C1.0137 5.23181 1.48233 4.18893 2.1672 3.29201C2.85207 2.3951 3.73469 1.66834 4.74637 1.16832C5.75805 0.668304 6.87147 0.408516 7.99997 0.409181Z" fill="white"/>
</svg>
