<svg width="16" height="16" viewBox="0 0 16 16" fill="none" xmlns="http://www.w3.org/2000/svg">
<path d="M14.7307 2.01025C13.9025 1.11194 12.766 0.617188 11.5304 0.617188C10.6068 0.617188 9.76099 0.90918 9.01636 1.48499C8.64062 1.77563 8.30017 2.13123 8 2.54626C7.69995 2.13135 7.35938 1.77563 6.98352 1.48499C6.23901 0.90918 5.39319 0.617188 4.4696 0.617188C3.23401 0.617188 2.09741 1.11194 1.26917 2.01025C0.450806 2.89807 0 4.11096 0 5.42566C0 6.77881 0.504272 8.01746 1.58691 9.32385C2.55542 10.4924 3.94739 11.6787 5.55933 13.0524C6.10974 13.5215 6.73364 14.0532 7.38147 14.6196C7.55261 14.7695 7.77222 14.8521 8 14.8521C8.22766 14.8521 8.44739 14.7695 8.61829 14.6199C9.26611 14.0533 9.89038 13.5214 10.441 13.052C12.0527 11.6786 13.4447 10.4924 14.4132 9.32373C15.4958 8.01746 16 6.77881 16 5.42554C16 4.11096 15.5492 2.89807 14.7307 2.01025Z" fill="white"/>
</svg>
